<svg width="343" height="295" viewBox="0 0 343 295" fill="none" xmlns="http://www.w3.org/2000/svg">
<rect x="0.5" y="0.5" width="342" height="294" rx="19.5" fill="#27283E" stroke="#62737F"/>
<line opacity="0.5" x1="56.5" y1="1.52734e-08" x2="56.5" y2="199.839" stroke="#3E436D"/>
<line opacity="0.5" x1="342" y1="67.1129" y2="67.1129" stroke="#3E436D"/>
<line opacity="0.5" x1="342" y1="133.726" y2="133.726" stroke="#3E436D"/>
<line opacity="0.5" x1="342" y1="200.339" y2="200.339" stroke="#3E436D"/>
<line opacity="0.5" x1="228.5" y1="1.52734e-08" x2="228.5" y2="199.839" stroke="#3E436D"/>
<line opacity="0.5" x1="113.5" y1="1.52734e-08" x2="113.5" y2="199.839" stroke="#3E436D"/>
<line opacity="0.5" x1="285.5" y1="1.52734e-08" x2="285.5" y2="199.839" stroke="#3E436D"/>
<line opacity="0.5" x1="170.5" y1="1.52734e-08" x2="170.5" y2="199.839" stroke="#3E436D"/>
<g opacity="0.23">
<rect y="219.271" width="7.125" height="18.8129" fill="#62737F"/>
<rect x="171" y="221.623" width="7.125" height="16.4613" fill="#62737F"/>
<rect x="85.5" y="219.271" width="7.125" height="18.8129" fill="#62737F"/>
<rect x="256.5" y="223.974" width="7.125" height="14.1097" fill="#62737F"/>
<rect x="28.5" y="219.271" width="7.125" height="18.8129" fill="#62737F"/>
<rect x="199.5" y="213" width="7.125" height="25.0839" fill="#62737F"/>
<rect x="114" y="213" width="7.125" height="25.0839" fill="#62737F"/>
<rect x="285" y="215.352" width="7.125" height="22.7323" fill="#62737F"/>
<rect x="57" y="213" width="7.125" height="25.0839" fill="#62737F"/>
<rect x="228" y="229.461" width="7.125" height="8.62257" fill="#62737F"/>
<rect x="142.5" y="219.271" width="7.125" height="18.8129" fill="#62737F"/>
<rect x="313.5" y="213" width="7.125" height="25.0839" fill="#62737F"/>
<rect x="14.25" y="213" width="7.125" height="25.0839" fill="#62737F"/>
<rect x="185.25" y="213" width="7.125" height="25.0839" fill="#62737F"/>
<rect x="99.75" y="213" width="7.125" height="25.0839" fill="#62737F"/>
<rect x="270.75" y="213" width="7.125" height="25.0839" fill="#62737F"/>
<rect x="42.75" y="213" width="7.125" height="25.0839" fill="#62737F"/>
<rect x="213.75" y="213" width="7.125" height="25.0839" fill="#62737F"/>
<rect x="128.25" y="216.919" width="7.125" height="21.1645" fill="#62737F"/>
<rect x="299.25" y="216.919" width="7.125" height="21.1645" fill="#62737F"/>
<rect x="71.25" y="221.623" width="7.125" height="16.4613" fill="#62737F"/>
<rect x="242.25" y="215.352" width="7.125" height="22.7323" fill="#62737F"/>
<rect x="156.75" y="221.623" width="7.125" height="16.4613" fill="#62737F"/>
<rect x="327.75" y="213" width="7.125" height="25.0839" fill="#62737F"/>
<rect x="7.125" y="216.919" width="7.125" height="21.1645" fill="#62737F"/>
<rect x="178.125" y="215.352" width="7.125" height="22.7323" fill="#62737F"/>
<rect x="92.625" y="225.542" width="7.125" height="12.5419" fill="#62737F"/>
<rect x="263.625" y="229.461" width="7.125" height="8.62257" fill="#62737F"/>
<rect x="35.625" y="216.919" width="7.125" height="21.1645" fill="#62737F"/>
<rect x="206.625" y="225.542" width="7.125" height="12.5419" fill="#62737F"/>
<rect x="121.125" y="219.271" width="7.125" height="18.8129" fill="#62737F"/>
<rect x="292.125" y="213" width="7.125" height="25.0839" fill="#62737F"/>
<rect x="64.125" y="216.919" width="7.125" height="21.1645" fill="#62737F"/>
<rect x="235.125" y="216.919" width="7.125" height="21.1645" fill="#62737F"/>
<rect x="149.625" y="225.542" width="7.125" height="12.5419" fill="#62737F"/>
<rect x="320.625" y="227.11" width="7.125" height="10.9742" fill="#62737F"/>
<rect x="21.375" y="221.623" width="7.125" height="16.4613" fill="#62737F"/>
<rect x="192.375" y="219.271" width="7.125" height="18.8129" fill="#62737F"/>
<rect x="106.875" y="216.919" width="7.125" height="21.1645" fill="#62737F"/>
<rect x="277.875" y="225.542" width="7.125" height="12.5419" fill="#62737F"/>
<rect x="49.875" y="219.271" width="7.125" height="18.8129" fill="#62737F"/>
<rect x="220.875" y="219.271" width="7.125" height="18.8129" fill="#62737F"/>
<rect x="135.375" y="229.461" width="7.125" height="8.62257" fill="#62737F"/>
<rect x="306.375" y="219.271" width="7.125" height="18.8129" fill="#62737F"/>
<rect x="78.375" y="213" width="7.125" height="25.0839" fill="#62737F"/>
<rect x="249.375" y="219.271" width="7.125" height="18.8129" fill="#62737F"/>
<rect x="163.875" y="216.919" width="7.125" height="21.1645" fill="#62737F"/>
<rect x="334.875" y="219.271" width="7.125" height="18.8129" fill="#62737F"/>
</g>
<rect x="7" y="113.653" width="7.55814" height="36.2856" rx="2" fill="#FF6393"/>
<rect width="1.51163" height="52.8734" rx="0.755814" transform="matrix(-1 0 0 1 11.5349 105.359)" fill="#FF6393"/>
<rect x="324.441" y="130.241" width="7.55814" height="36.2856" rx="2" fill="#FF6393"/>
<rect width="1.51163" height="52.8734" rx="0.755814" transform="matrix(-1 0 0 1 328.977 121.947)" fill="#FF6393"/>
<rect x="143.047" y="137.965" width="7.55814" height="51.9383" rx="2" fill="#FF6393"/>
<rect width="1.51163" height="63.2407" rx="0.755814" transform="matrix(-1 0 0 1 147.581 132.314)" fill="#FF6393"/>
<rect x="52.3486" y="110.4" width="7.55814" height="22.056" rx="2" fill="#FF6393"/>
<rect width="1.51163" height="32.1387" rx="0.755814" transform="matrix(-1 0 0 1 56.8837 105.359)" fill="#FF6393"/>
<rect x="188.396" y="159.127" width="7.55814" height="22.056" rx="2" fill="#FF6393"/>
<rect width="1.51163" height="32.1387" rx="0.755814" transform="matrix(-1 0 0 1 192.93 154.086)" fill="#FF6393"/>
<rect x="67.4648" y="117.658" width="7.55814" height="22.056" rx="2" fill="#FF6393"/>
<rect width="1.51163" height="36.2856" rx="0.755814" transform="matrix(-1 0 0 1 72 108.469)" fill="#FF6393"/>
<rect x="203.512" y="150.833" width="7.55814" height="22.056" rx="2" fill="#FF6393"/>
<rect width="1.51163" height="36.2856" rx="0.755814" transform="matrix(-1 0 0 1 208.047 141.645)" fill="#FF6393"/>
<rect x="112.813" y="117.658" width="7.55814" height="22.056" rx="2" fill="#FF6393"/>
<rect width="1.51163" height="36.2856" rx="0.755814" transform="matrix(-1 0 0 1 117.349 108.469)" fill="#FF6393"/>
<rect x="279.093" y="103.143" width="7.55814" height="22.056" rx="2" fill="#FF6393"/>
<rect width="1.51163" height="30.0652" rx="0.755814" transform="matrix(-1 0 0 1 283.628 100.175)" fill="#FF6393"/>
<rect x="248.86" y="136.319" width="7.55814" height="22.056" rx="2" fill="#FF6393"/>
<rect width="1.51163" height="36.2856" rx="0.755814" transform="matrix(-1 0 0 1 253.395 127.13)" fill="#FF6393"/>
<rect x="127.931" y="128.025" width="7.55814" height="22.056" rx="2" fill="#FF6393"/>
<rect width="1.51163" height="25.9183" rx="0.755814" transform="matrix(-1 0 0 1 132.465 126.094)" fill="#FF6393"/>
<rect x="294.209" y="113.511" width="7.55814" height="22.056" rx="2" fill="#FF6393"/>
<rect width="1.51163" height="25.9183" rx="0.755814" transform="matrix(-1 0 0 1 298.744 111.579)" fill="#FF6393"/>
<rect x="22.1162" y="105.542" width="7.55814" height="23.4789" rx="2" fill="#47DDC2"/>
<rect x="25.1395" y="100.175" width="1.51163" height="34.2122" rx="0.755815" fill="#47DDC2"/>
<rect x="173.279" y="150.122" width="7.55814" height="23.4789" rx="2" fill="#47DDC2"/>
<rect x="176.302" y="144.755" width="1.51163" height="34.2122" rx="0.755814" fill="#47DDC2"/>
<rect x="82.5811" y="105.542" width="7.55814" height="23.4789" rx="2" fill="#47DDC2"/>
<rect x="85.6047" y="100.175" width="1.51163" height="34.2122" rx="0.755814" fill="#47DDC2"/>
<rect x="309.325" y="105.542" width="7.55814" height="23.4789" rx="2" fill="#47DDC2"/>
<rect x="312.349" y="100.175" width="1.51163" height="34.2122" rx="0.755814" fill="#47DDC2"/>
<rect x="233.744" y="127.313" width="7.55814" height="23.4789" rx="2" fill="#47DDC2"/>
<rect x="236.767" y="121.947" width="1.51163" height="34.2122" rx="0.755814" fill="#47DDC2"/>
<rect x="158.163" y="166.709" width="7.55814" height="23.4789" rx="2" fill="#47DDC2"/>
<rect x="161.186" y="161.343" width="1.51163" height="34.2122" rx="0.755814" fill="#47DDC2"/>
<rect x="97.6977" y="77.5708" width="7.55814" height="46.2464" rx="2" fill="#47DDC2"/>
<rect x="100.721" y="67" width="1.51163" height="67.3876" rx="0.755814" fill="#47DDC2"/>
<rect x="218.628" y="122.15" width="7.55814" height="46.2464" rx="2" fill="#47DDC2"/>
<rect x="221.651" y="111.579" width="1.51163" height="67.3876" rx="0.755814" fill="#47DDC2"/>
<rect x="263.977" y="94.1587" width="7.55814" height="46.2464" rx="2" fill="#47DDC2"/>
<rect x="267" y="83.5877" width="1.51163" height="67.3876" rx="0.755814" fill="#47DDC2"/>
<rect x="37.2324" y="91.2311" width="7.55814" height="33.4397" rx="2" fill="#47DDC2"/>
<rect x="40.2558" y="78.4041" width="1.51163" height="48.7264" rx="0.755814" fill="#47DDC2"/>
</svg>
