<svg width="101" height="111" viewBox="0 0 101 111" fill="none" xmlns="http://www.w3.org/2000/svg">
<path d="M91.3849 20.6932L60.1151 2.57954C57.1446 0.884718 53.8468 0 50.5 0C47.1532 0 43.8554 0.884718 40.8849 2.57954L9.6152 20.6932C6.77526 22.2414 4.37669 24.6169 2.68115 27.5606C0.985608 30.5044 0.0581693 33.9031 0 37.3863V73.6135C0.0581693 77.0967 0.985608 80.4958 2.68115 83.4392C4.37669 86.383 6.77526 88.7585 9.6152 90.3067L40.8849 108.42C43.8554 110.115 47.1532 111 50.5 111C53.8468 111 57.1446 110.115 60.1151 108.42L91.3849 90.3067C94.2246 88.7585 96.6235 86.383 98.3187 83.4392C100.014 80.4958 100.942 77.0967 101 73.6135V37.3863C100.942 33.9031 100.014 30.5044 98.3187 27.5606C96.6235 24.6169 94.2246 22.2414 91.3849 20.6932ZM85.3249 85.3343H15.7156C8.7062 85.3343 4.3026 77.698 7.8174 71.6156L42.6019 11.1036C43.4841 9.69799 44.6638 8.54889 46.0397 7.75509C47.4155 6.96129 48.946 6.54659 50.5 6.54659C52.054 6.54659 53.5845 6.96129 54.9603 7.75509C56.3362 8.54889 57.5159 9.69799 58.3981 11.1036L93.1828 71.6156C96.6972 77.698 92.2939 85.3343 85.2842 85.3343H85.3249Z" fill="white"/>
</svg>
