<svg width="603" height="164" viewBox="0 0 603 164" fill="none" xmlns="http://www.w3.org/2000/svg">
<g clip-path="url(#clip0_101_8)">
<path d="M113.385 46.6932L82.1151 28.5795C79.1446 26.8847 75.8468 26 72.5 26C69.1532 26 65.8554 26.8847 62.8849 28.5795L31.6152 46.6932C28.7753 48.2414 26.3767 50.6169 24.6812 53.5606C22.9856 56.5044 22.0582 59.9031 22 63.3863V99.6135C22.0582 103.097 22.9856 106.496 24.6812 109.439C26.3767 112.383 28.7753 114.759 31.6152 116.307L62.8849 134.42C65.8554 136.115 69.1532 137 72.5 137C75.8468 137 79.1446 136.115 82.1151 134.42L113.385 116.307C116.225 114.759 118.623 112.383 120.319 109.439C122.014 106.496 122.942 103.097 123 99.6135V63.3863C122.942 59.9031 122.014 56.5044 120.319 53.5606C118.623 50.6169 116.225 48.2414 113.385 46.6932ZM107.325 111.334H37.7156C30.7062 111.334 26.3026 103.698 29.8174 97.6156L64.6019 37.1036C65.4841 35.698 66.6638 34.5489 68.0397 33.7551C69.4155 32.9613 70.946 32.5466 72.5 32.5466C74.054 32.5466 75.5845 32.9613 76.9603 33.7551C78.3362 34.5489 79.5159 35.698 80.3981 37.1036L115.183 97.6156C118.697 103.698 114.294 111.334 107.284 111.334H107.325Z" fill="#A4ADB9"/>
<path d="M161.557 63.7642V54.6364H204.562V63.7642H188.531V107H177.588V63.7642H161.557ZM211.645 107V54.6364H246.929V63.7642H222.716V76.2415H245.114V85.3693H222.716V97.8722H247.031V107H211.645ZM284.137 69.696C283.933 67.6335 283.055 66.0312 281.504 64.8892C279.952 63.7472 277.847 63.1761 275.188 63.1761C273.381 63.1761 271.856 63.4318 270.612 63.9432C269.367 64.4375 268.413 65.1278 267.748 66.0142C267.1 66.9006 266.776 67.9062 266.776 69.0312C266.742 69.9688 266.938 70.7869 267.364 71.4858C267.808 72.1847 268.413 72.7898 269.18 73.3011C269.947 73.7955 270.833 74.2301 271.839 74.6051C272.844 74.9631 273.918 75.2699 275.06 75.5256L279.765 76.6506C282.049 77.1619 284.146 77.8437 286.055 78.696C287.964 79.5483 289.617 80.5966 291.015 81.8409C292.413 83.0852 293.495 84.5511 294.262 86.2386C295.046 87.9261 295.447 89.8608 295.464 92.0426C295.447 95.2472 294.629 98.0256 293.009 100.378C291.407 102.713 289.089 104.528 286.055 105.824C283.038 107.102 279.398 107.741 275.137 107.741C270.91 107.741 267.228 107.094 264.092 105.798C260.972 104.503 258.535 102.585 256.779 100.045C255.04 97.4886 254.129 94.3267 254.043 90.5597H264.756C264.876 92.3153 265.379 93.7812 266.265 94.9574C267.168 96.1165 268.37 96.9943 269.87 97.5909C271.387 98.1705 273.1 98.4602 275.009 98.4602C276.884 98.4602 278.512 98.1875 279.893 97.642C281.29 97.0966 282.373 96.3381 283.14 95.3665C283.907 94.3949 284.29 93.2784 284.29 92.017C284.29 90.8409 283.941 89.8523 283.242 89.0511C282.56 88.25 281.555 87.5682 280.225 87.0057C278.913 86.4432 277.302 85.9318 275.393 85.4716L269.691 84.0398C265.276 82.9659 261.79 81.2869 259.234 79.0028C256.677 76.7187 255.407 73.642 255.424 69.7727C255.407 66.6023 256.251 63.8324 257.955 61.4631C259.677 59.0938 262.038 57.2443 265.038 55.9148C268.038 54.5852 271.447 53.9205 275.265 53.9205C279.151 53.9205 282.543 54.5852 285.441 55.9148C288.356 57.2443 290.623 59.0938 292.242 61.4631C293.862 63.8324 294.697 66.5767 294.748 69.696H284.137ZM331.317 69.696C331.112 67.6335 330.234 66.0312 328.683 64.8892C327.132 63.7472 325.027 63.1761 322.368 63.1761C320.561 63.1761 319.036 63.4318 317.791 63.9432C316.547 64.4375 315.592 65.1278 314.928 66.0142C314.28 66.9006 313.956 67.9062 313.956 69.0312C313.922 69.9688 314.118 70.7869 314.544 71.4858C314.987 72.1847 315.592 72.7898 316.359 73.3011C317.126 73.7955 318.013 74.2301 319.018 74.6051C320.024 74.9631 321.098 75.2699 322.24 75.5256L326.945 76.6506C329.229 77.1619 331.325 77.8437 333.234 78.696C335.143 79.5483 336.797 80.5966 338.195 81.8409C339.592 83.0852 340.675 84.5511 341.442 86.2386C342.226 87.9261 342.626 89.8608 342.643 92.0426C342.626 95.2472 341.808 98.0256 340.189 100.378C338.587 102.713 336.268 104.528 333.234 105.824C330.217 107.102 326.578 107.741 322.317 107.741C318.089 107.741 314.408 107.094 311.271 105.798C308.152 104.503 305.714 102.585 303.959 100.045C302.22 97.4886 301.308 94.3267 301.223 90.5597H311.936C312.055 92.3153 312.558 93.7812 313.445 94.9574C314.348 96.1165 315.55 96.9943 317.05 97.5909C318.567 98.1705 320.28 98.4602 322.189 98.4602C324.064 98.4602 325.692 98.1875 327.072 97.642C328.47 97.0966 329.553 96.3381 330.32 95.3665C331.087 94.3949 331.47 93.2784 331.47 92.017C331.47 90.8409 331.121 89.8523 330.422 89.0511C329.74 88.25 328.734 87.5682 327.405 87.0057C326.092 86.4432 324.482 85.9318 322.572 85.4716L316.871 84.0398C312.456 82.9659 308.97 81.2869 306.413 79.0028C303.857 76.7187 302.587 73.642 302.604 69.7727C302.587 66.6023 303.43 63.8324 305.135 61.4631C306.857 59.0938 309.217 57.2443 312.217 55.9148C315.217 54.5852 318.626 53.9205 322.445 53.9205C326.331 53.9205 329.723 54.5852 332.621 55.9148C335.536 57.2443 337.803 59.0938 339.422 61.4631C341.041 63.8324 341.876 66.5767 341.928 69.696H331.317ZM350.09 107V54.6364H385.374V63.7642H361.161V76.2415H383.559V85.3693H361.161V97.8722H385.477V107H350.09ZM394.176 107V54.6364H414.835C418.79 54.6364 422.165 55.3437 424.96 56.7585C427.773 58.1562 429.912 60.142 431.378 62.7159C432.861 65.2727 433.602 68.2812 433.602 71.7415C433.602 75.2187 432.852 78.2102 431.352 80.7159C429.852 83.2045 427.679 85.1136 424.832 86.4432C422.003 87.7727 418.577 88.4375 414.554 88.4375H400.722V79.5398H412.764C414.878 79.5398 416.634 79.25 418.031 78.6705C419.429 78.0909 420.469 77.2216 421.151 76.0625C421.849 74.9034 422.199 73.4631 422.199 71.7415C422.199 70.0028 421.849 68.5369 421.151 67.3438C420.469 66.1506 419.42 65.2472 418.006 64.6335C416.608 64.0028 414.844 63.6875 412.713 63.6875H405.247V107H394.176ZM422.455 83.1705L435.469 107H423.247L410.514 83.1705H422.455ZM450.452 107H438.588L456.665 54.6364H470.932L488.983 107H477.119L464.003 66.6023H463.594L450.452 107ZM449.71 86.4176H477.733V95.0597H449.71V86.4176ZM539.026 72.9688H527.827C527.623 71.5199 527.205 70.233 526.575 69.108C525.944 67.9659 525.134 66.9943 524.146 66.1932C523.157 65.392 522.015 64.7784 520.719 64.3523C519.441 63.9261 518.052 63.7131 516.552 63.7131C513.842 63.7131 511.481 64.3864 509.469 65.733C507.458 67.0625 505.898 69.0057 504.79 71.5625C503.683 74.1023 503.129 77.1875 503.129 80.8182C503.129 84.5511 503.683 87.6875 504.79 90.2273C505.915 92.767 507.484 94.6847 509.495 95.9801C511.506 97.2756 513.833 97.9233 516.475 97.9233C517.958 97.9233 519.33 97.7273 520.592 97.3352C521.87 96.9432 523.004 96.3722 523.992 95.6222C524.981 94.8551 525.799 93.9261 526.447 92.8352C527.112 91.7443 527.572 90.5 527.827 89.1023L539.026 89.1534C538.737 91.5568 538.012 93.875 536.853 96.108C535.711 98.3239 534.168 100.31 532.225 102.065C530.299 103.804 527.998 105.185 525.322 106.207C522.663 107.213 519.654 107.716 516.296 107.716C511.626 107.716 507.45 106.659 503.768 104.545C500.103 102.432 497.205 99.3722 495.075 95.3665C492.961 91.3608 491.904 86.5114 491.904 80.8182C491.904 75.108 492.978 70.25 495.126 66.2443C497.273 62.2386 500.188 59.1875 503.87 57.0909C507.552 54.9773 511.694 53.9205 516.296 53.9205C519.33 53.9205 522.143 54.3466 524.734 55.1989C527.342 56.0511 529.651 57.2955 531.663 58.9318C533.674 60.5511 535.31 62.5369 536.572 64.8892C537.85 67.2415 538.668 69.9347 539.026 72.9688ZM544.971 63.7642V54.6364H587.977V63.7642H571.945V107H561.002V63.7642H544.971Z" fill="#D9DBDD"/>
</g>
<defs>
<clipPath id="clip0_101_8">
<rect width="603" height="164" fill="white"/>
</clipPath>
</defs>
</svg>
