<svg width="603" height="164" viewBox="0 0 603 164" fill="none" xmlns="http://www.w3.org/2000/svg">
<path d="M113.385 46.6932L82.1151 28.5795C79.1446 26.8847 75.8468 26 72.5 26C69.1532 26 65.8554 26.8847 62.8849 28.5795L31.6152 46.6932C28.7753 48.2414 26.3767 50.6169 24.6812 53.5606C22.9856 56.5044 22.0582 59.9031 22 63.3863V99.6135C22.0582 103.097 22.9856 106.496 24.6812 109.439C26.3767 112.383 28.7753 114.759 31.6152 116.307L62.8849 134.42C65.8554 136.115 69.1532 137 72.5 137C75.8468 137 79.1446 136.115 82.1151 134.42L113.385 116.307C116.225 114.759 118.623 112.383 120.319 109.439C122.014 106.496 122.942 103.097 123 99.6135V63.3863C122.942 59.9031 122.014 56.5044 120.319 53.5606C118.623 50.6169 116.225 48.2414 113.385 46.6932ZM107.325 111.334H37.7156C30.7062 111.334 26.3026 103.698 29.8174 97.6156L64.6019 37.1036C65.4841 35.698 66.6638 34.5489 68.0397 33.7551C69.4155 32.9613 70.946 32.5466 72.5 32.5466C74.054 32.5466 75.5845 32.9613 76.9603 33.7551C78.3362 34.5489 79.5159 35.698 80.3981 37.1036L115.183 97.6156C118.697 103.698 114.294 111.334 107.284 111.334H107.325Z" fill="#D9DBDD"/>
<path d="M155.415 61.1662V52.5455H196.031V61.1662H180.891V102H170.555V61.1662H155.415ZM202.72 102V52.5455H236.044V61.1662H213.176V72.9503H234.33V81.571H213.176V93.3793H236.141V102H202.72ZM271.185 66.7685C270.992 64.8205 270.163 63.3073 268.698 62.2287C267.233 61.1501 265.245 60.6108 262.733 60.6108C261.027 60.6108 259.586 60.8523 258.411 61.3352C257.236 61.8021 256.334 62.4541 255.706 63.2912C255.095 64.1283 254.789 65.0781 254.789 66.1406C254.757 67.026 254.942 67.7988 255.344 68.4588C255.763 69.1188 256.334 69.6903 257.059 70.1733C257.783 70.6402 258.62 71.0507 259.57 71.4048C260.52 71.7429 261.534 72.0327 262.613 72.2741L267.056 73.3366C269.213 73.8196 271.193 74.4635 272.996 75.2685C274.799 76.0734 276.361 77.0634 277.681 78.2386C279.001 79.4138 280.023 80.7983 280.748 82.392C281.488 83.9858 281.866 85.813 281.882 87.8736C281.866 90.9001 281.094 93.5241 279.564 95.7457C278.051 97.9512 275.862 99.6657 272.996 100.889C270.147 102.097 266.71 102.7 262.685 102.7C258.693 102.7 255.215 102.089 252.253 100.865C249.307 99.6416 247.005 97.8305 245.347 95.4318C243.705 93.017 242.844 90.0308 242.763 86.473H252.881C252.994 88.1312 253.469 89.5156 254.306 90.6264C255.159 91.7211 256.294 92.5502 257.711 93.1136C259.143 93.661 260.761 93.9347 262.564 93.9347C264.335 93.9347 265.873 93.6771 267.176 93.1619C268.497 92.6468 269.519 91.9304 270.243 91.0128C270.968 90.0952 271.33 89.0407 271.33 87.8494C271.33 86.7386 271 85.8049 270.34 85.0483C269.696 84.2917 268.746 83.6477 267.49 83.1165C266.251 82.5852 264.73 82.1023 262.926 81.6676L257.542 80.3153C253.372 79.3011 250.08 77.7154 247.665 75.5582C245.25 73.401 244.051 70.4953 244.067 66.8409C244.051 63.8466 244.848 61.2306 246.458 58.9929C248.084 56.7552 250.313 55.0085 253.147 53.7528C255.98 52.4972 259.2 51.8693 262.806 51.8693C266.476 51.8693 269.68 52.4972 272.417 53.7528C275.169 55.0085 277.31 56.7552 278.84 58.9929C280.369 61.2306 281.158 63.8224 281.206 66.7685H271.185ZM315.744 66.7685C315.55 64.8205 314.721 63.3073 313.256 62.2287C311.791 61.1501 309.803 60.6108 307.292 60.6108C305.585 60.6108 304.145 60.8523 302.969 61.3352C301.794 61.8021 300.893 62.4541 300.265 63.2912C299.653 64.1283 299.347 65.0781 299.347 66.1406C299.315 67.026 299.5 67.7988 299.903 68.4588C300.321 69.1188 300.893 69.6903 301.617 70.1733C302.342 70.6402 303.179 71.0507 304.129 71.4048C305.078 71.7429 306.093 72.0327 307.171 72.2741L311.614 73.3366C313.772 73.8196 315.752 74.4635 317.555 75.2685C319.358 76.0734 320.919 77.0634 322.239 78.2386C323.559 79.4138 324.582 80.7983 325.306 82.392C326.047 83.9858 326.425 85.813 326.441 87.8736C326.425 90.9001 325.652 93.5241 324.123 95.7457C322.61 97.9512 320.42 99.6657 317.555 100.889C314.705 102.097 311.268 102.7 307.244 102.7C303.251 102.7 299.774 102.089 296.812 100.865C293.866 99.6416 291.564 97.8305 289.906 95.4318C288.263 93.017 287.402 90.0308 287.322 86.473H297.44C297.552 88.1312 298.027 89.5156 298.864 90.6264C299.718 91.7211 300.853 92.5502 302.269 93.1136C303.702 93.661 305.32 93.9347 307.123 93.9347C308.894 93.9347 310.431 93.6771 311.735 93.1619C313.055 92.6468 314.077 91.9304 314.802 91.0128C315.526 90.0952 315.888 89.0407 315.888 87.8494C315.888 86.7386 315.558 85.8049 314.898 85.0483C314.254 84.2917 313.305 83.6477 312.049 83.1165C310.809 82.5852 309.288 82.1023 307.485 81.6676L302.1 80.3153C297.931 79.3011 294.638 77.7154 292.224 75.5582C289.809 73.401 288.61 70.4953 288.626 66.8409C288.61 63.8466 289.406 61.2306 291.016 58.9929C292.642 56.7552 294.872 55.0085 297.705 53.7528C300.539 52.4972 303.758 51.8693 307.364 51.8693C311.035 51.8693 314.238 52.4972 316.975 53.7528C319.728 55.0085 321.869 56.7552 323.398 58.9929C324.928 61.2306 325.717 63.8224 325.765 66.7685H315.744ZM333.474 102V52.5455H366.798V61.1662H343.93V72.9503H365.083V81.571H343.93V93.3793H366.895V102H333.474ZM375.111 102V52.5455H394.622C398.357 52.5455 401.545 53.2135 404.185 54.5497C406.841 55.8698 408.861 57.7453 410.246 60.1761C411.646 62.5909 412.347 65.4323 412.347 68.7003C412.347 71.9844 411.638 74.8097 410.222 77.1761C408.805 79.5265 406.752 81.3295 404.064 82.5852C401.392 83.8409 398.156 84.4688 394.357 84.4688H381.293V76.0653H392.666C394.662 76.0653 396.321 75.7917 397.641 75.2443C398.961 74.697 399.943 73.8759 400.587 72.7812C401.247 71.6866 401.577 70.3262 401.577 68.7003C401.577 67.0582 401.247 65.6738 400.587 64.5469C399.943 63.42 398.953 62.5668 397.616 61.9872C396.296 61.3916 394.63 61.0938 392.618 61.0938H385.567V102H375.111ZM401.818 79.4943L414.109 102H402.567L390.541 79.4943H401.818ZM428.26 102H417.055L434.128 52.5455H447.602L464.651 102H453.446L441.058 63.8466H440.672L428.26 102ZM427.56 82.5611H454.026V90.723H427.56V82.5611ZM511.914 69.8594H501.337C501.144 68.491 500.749 67.2756 500.154 66.2131C499.558 65.1345 498.793 64.2169 497.86 63.4602C496.926 62.7036 495.847 62.1241 494.624 61.7216C493.417 61.3191 492.105 61.1179 490.688 61.1179C488.128 61.1179 485.899 61.7538 483.999 63.0256C482.099 64.2812 480.626 66.1165 479.58 68.5312C478.533 70.9299 478.01 73.8437 478.01 77.2727C478.01 80.7983 478.533 83.7604 479.58 86.1591C480.642 88.5578 482.123 90.3688 484.023 91.5923C485.923 92.8158 488.12 93.4276 490.615 93.4276C492.016 93.4276 493.312 93.2424 494.503 92.8722C495.711 92.5019 496.781 91.9626 497.715 91.2543C498.649 90.5298 499.421 89.6525 500.033 88.6222C500.661 87.5919 501.096 86.4167 501.337 85.0966L511.914 85.1449C511.64 87.4148 510.956 89.6042 509.861 91.7131C508.783 93.8059 507.326 95.6813 505.49 97.3395C503.671 98.9815 501.498 100.286 498.971 101.251C496.459 102.201 493.618 102.676 490.446 102.676C486.035 102.676 482.091 101.678 478.614 99.6818C475.153 97.6856 472.416 94.7959 470.404 91.0128C468.408 87.2296 467.409 82.6496 467.409 77.2727C467.409 71.8797 468.424 67.2917 470.452 63.5085C472.48 59.7254 475.233 56.8437 478.711 54.8636C482.188 52.8674 486.1 51.8693 490.446 51.8693C493.312 51.8693 495.968 52.2718 498.415 53.0767C500.878 53.8816 503.06 55.0568 504.959 56.6023C506.859 58.1316 508.404 60.0071 509.596 62.2287C510.803 64.4503 511.576 66.9938 511.914 69.8594ZM517.528 61.1662V52.5455H558.145V61.1662H543.004V102H532.669V61.1662H517.528Z" fill="#D9DBDD"/>
</svg>
